<?xml version="1.0" encoding="utf-8"?>
<!-- Generator: Adobe Illustrator 16.0.0, SVG Export Plug-In . SVG Version: 6.00 Build 0)  -->
<!DOCTYPE svg PUBLIC "-//W3C//DTD SVG 1.1//EN" "http://www.w3.org/Graphics/SVG/1.1/DTD/svg11.dtd">
<svg version="1.1" id="Layer_4" xmlns="http://www.w3.org/2000/svg" xmlns:xlink="http://www.w3.org/1999/xlink" x="0px" y="0px"
	 width="1280px" height="1024px" viewBox="0 0 1280 1024" enable-background="new 0 0 1280 1024" xml:space="preserve">
<path id="Base1" fill="#777777" d="M765,267.081c0,15.951-19.279,28.881-43.062,28.881c-23.781,0-43.062-12.93-43.062-28.881v-8.056
	c0-15.95,19.279-27.899,43.062-27.899c23.783,0,43.062,11.948,43.062,27.898V267.081z"/>
<path id="Base6" fill="#666666" d="M910.001,279.33c0,15.951-19.279,28.881-43.062,28.881c-23.783,0-43.062-12.93-43.062-28.881
	v-8.056c0-15.95,19.279-27.899,43.062-27.899c23.781,0,43.062,11.949,43.062,27.899V279.33z"/>
<path id="Color6" fill="#777777" d="M907.251,277.093c0,14.515-18.075,26.281-40.375,26.281s-40.375-11.767-40.375-26.281v-6.438
	c0-14.515,18.075-26.281,40.375-26.281s40.375,11.767,40.375,26.281V277.093z"/>
<path id="Button6" opacity="0.35" fill="#FFFFFF" enable-background="new    " d="M907.251,276.968
	c0,14.515-18.075,26.281-40.375,26.281s-40.375-11.767-40.375-26.281v-6.438c0-14.515,18.075-26.281,40.375-26.281
	s40.375,11.767,40.375,26.281V276.968z"/>
<ellipse id="Cap6" fill="#777777" cx="866.876" cy="268.554" rx="34.952" ry="21.055"/>
<path id="Base2" fill="#888888" d="M831,223.748c0,15.951-19.279,28.881-43.062,28.881c-23.781,0-43.062-12.93-43.062-28.881v-8.056
	c0-15.95,19.279-27.899,43.062-27.899c23.783,0,43.062,11.948,43.062,27.898V223.748z"/>
<path id="Color2" fill="#777777" d="M828.25,221.511c0,14.515-18.075,26.281-40.375,26.281S747.5,236.025,747.5,221.511v-6.438
	c0-14.515,18.075-26.281,40.375-26.281s40.375,11.767,40.375,26.281V221.511z"/>
<path id="Button2" opacity="0.35" fill="#FFFFFF" enable-background="new    " d="M828.25,221.386
	c0,14.515-18.075,26.281-40.375,26.281S747.5,235.9,747.5,221.386v-6.438c0-14.515,18.075-26.281,40.375-26.281
	s40.375,11.767,40.375,26.281V221.386z"/>
<ellipse id="Cap2" fill="#777777" cx="787.875" cy="212.972" rx="34.952" ry="21.055"/>
<path id="Color1" fill="#777777" d="M762.25,264.844c0,14.515-18.075,26.281-40.375,26.281S681.5,279.358,681.5,264.844v-6.438
	c0-14.515,18.075-26.281,40.375-26.281s40.375,11.767,40.375,26.281V264.844z"/>
<path id="Button1" opacity="0.35" fill="#FFFFFF" enable-background="new    " d="M762.25,264.719
	c0,14.515-18.075,26.281-40.375,26.281S681.5,279.233,681.5,264.719v-6.438c0-14.515,18.075-26.281,40.375-26.281
	s40.375,11.767,40.375,26.281V264.719z"/>
<ellipse id="Cap1" fill="#777777" cx="721.875" cy="256.305" rx="34.952" ry="21.055"/>
<path id="Base3" fill="#666666" d="M904,176.081c0,15.951-19.279,28.881-43.062,28.881c-23.781,0-43.062-12.93-43.062-28.881v-8.056
	c0-15.95,19.279-27.899,43.062-27.899c23.783,0,43.062,11.949,43.062,27.899V176.081z"/>
<path id="Color3" fill="#777777" d="M901.25,173.844c0,14.515-18.075,26.281-40.375,26.281S820.5,188.359,820.5,173.844v-6.438
	c0-14.515,18.075-26.281,40.375-26.281s40.375,11.767,40.375,26.281V173.844z"/>
<path id="Button3" opacity="0.35" fill="#FFFFFF" enable-background="new    " d="M901.25,173.719
	c0,14.515-18.075,26.281-40.375,26.281S820.5,188.234,820.5,173.719v-6.438c0-14.515,18.075-26.281,40.375-26.281
	s40.375,11.767,40.375,26.281V173.719z"/>
<ellipse id="Cap3" fill="#777777" cx="860.875" cy="165.306" rx="34.952" ry="21.055"/>
<path id="Base7" fill="#666666" d="M981.952,231.663c0,15.951-19.279,28.881-43.062,28.881c-23.781,0-43.062-12.93-43.062-28.881
	v-8.056c0-15.95,19.279-27.899,43.062-27.899c23.783,0,43.062,11.949,43.062,27.899V231.663z"/>
<path id="Color7" fill="#777777" d="M979.202,229.426c0,14.515-18.075,26.281-40.375,26.281s-40.375-11.767-40.375-26.281v-6.438
	c0-14.515,18.075-26.281,40.375-26.281s40.375,11.767,40.375,26.281V229.426z"/>
<path id="Button7" opacity="0.35" fill="#FFFFFF" enable-background="new    " d="M979.202,229.301
	c0,14.515-18.075,26.281-40.375,26.281s-40.375-11.767-40.375-26.281v-6.438c0-14.515,18.075-26.281,40.375-26.281
	s40.375,11.767,40.375,26.281V229.301z"/>
<ellipse id="Cap7" fill="#777777" cx="938.828" cy="220.888" rx="34.952" ry="21.055"/>
<path id="Base5" fill="#666666" d="M845.334,324.081c0,15.951-19.279,28.881-43.062,28.881c-23.781,0-43.062-12.93-43.062-28.881
	v-8.056c0-15.95,19.279-27.899,43.062-27.899c23.783,0,43.062,11.949,43.062,27.899V324.081z"/>
<path id="Color5" fill="#777777" d="M842.584,321.844c0,14.515-18.075,26.281-40.375,26.281s-40.375-11.767-40.375-26.281v-6.438
	c0-14.515,18.075-26.281,40.375-26.281s40.375,11.767,40.375,26.281V321.844z"/>
<path id="Button5" opacity="0.35" fill="#FFFFFF" enable-background="new    " d="M842.584,321.719
	c0,14.515-18.075,26.281-40.375,26.281s-40.375-11.767-40.375-26.281v-6.438c0-14.515,18.075-26.281,40.375-26.281
	s40.375,11.767,40.375,26.281V321.719z"/>
<ellipse id="Cap5" fill="#777777" cx="802.209" cy="313.305" rx="34.952" ry="21.055"/>
<path id="Base4" fill="#666666" d="M801.334,396.315c0,15.949-19.279,28.881-43.062,28.881c-23.781,0-43.062-12.932-43.062-28.881
	v-8.058c0-15.95,19.279-27.899,43.062-27.899c23.783,0,43.062,11.949,43.062,27.899V396.315z"/>
<path id="Color4" fill="#777777" d="M798.584,394.079c0,14.515-18.075,26.281-40.375,26.281s-40.375-11.769-40.375-26.281v-6.438
	c0-14.515,18.075-26.281,40.375-26.281s40.375,11.767,40.375,26.281V394.079z"/>
<path id="Button4" opacity="0.35" fill="#FFFFFF" enable-background="new    " d="M798.584,393.954
	c0,14.515-18.075,26.281-40.375,26.281s-40.375-11.769-40.375-26.281v-6.438c0-14.515,18.075-26.281,40.375-26.281
	s40.375,11.767,40.375,26.281V393.954z"/>
<ellipse id="Cap4" fill="#777777" cx="758.209" cy="385.54" rx="34.952" ry="21.055"/>
<path id="Base0" fill="#666666" d="M724,323.081c0,15.951-19.279,28.881-43.062,28.881c-23.781,0-43.062-12.93-43.062-28.881v-8.056
	c0-15.95,19.279-27.899,43.062-27.899c23.783,0,43.062,11.948,43.062,27.898V323.081z"/>
<path id="Color0" fill="#777777" d="M721.25,320.844c0,14.515-18.075,26.281-40.375,26.281S640.5,335.358,640.5,320.844v-6.438
	c0-14.515,18.075-26.281,40.375-26.281s40.375,11.767,40.375,26.281V320.844z"/>
<path id="Button0" opacity="0.35" fill="#FFFFFF" enable-background="new    " d="M721.25,320.719
	c0,14.515-18.075,26.281-40.375,26.281S640.5,335.233,640.5,320.719v-6.438c0-14.515,18.075-26.281,40.375-26.281
	s40.375,11.767,40.375,26.281V320.719z"/>
<ellipse id="Cap0" fill="#777777" cx="680.875" cy="312.305" rx="34.952" ry="21.055"/>
</svg>
